# xmcd
#
# Track frame offsets:
#	150
#	29511
#	44208
#	66475
#	81516
#	103222
#	127464
#	151589
#	172755
#	190912
#
# Disc length: 2772 seconds
#
# Revision: 1
# Processed by: cddbd v1.5.2PL0 Copyright (c) Steve Scherf et al.
# Submitted via: audiograbber 1.83.01
#
DISCID=930ad20a
DTITLE=Mario Biondi - Due [CD 2)
DYEAR=2011
DGENRE=Blues
TTITLE0=Mother Earth
TTITLE1=All I Really Want
TTITLE2=Do You Want Me To Stay
TTITLE3=All You Have To Do
TTITLE4=More Than You Could Ever Know
TTITLE5=Where Are You
TTITLE6=Lullaby
TTITLE7=Everytime I Think Of You
TTITLE8=Under That Sky
TTITLE9=Finale In Dissolvenza
EXTD=
EXTT0=
EXTT1=
EXTT2=
EXTT3=
EXTT4=
EXTT5=
EXTT6=
EXTT7=
EXTT8=
EXTT9=
PLAYORDER=
